PathFileType	4	(X/Y/Z)	C:/Users/beibeiliu/ov580/test_trc/User2\sequence.15_training_dense_right.trc
DataRate	CameraRate	NumFrames	NumMarkers	Units	OrigDataRate	OrigDataStartFrame	OrigNumFrames
120	120	16	19	mm	120	137	273
Frame#	Time	ThumbCMC			ThumbMCP			ThumbIP			ThumbTip			IndexMCP			IndexPIP			IndexTip			MiddleMCP			MiddlePIP			MiddleTip			RingMCP			RingPIP			RingTip			PinkyMCP			PinkyPIP			PinkyTip			BackHand1			BackHand2			BackHand3	
		X0	Y0	Z0	X1	Y1	Z1	X2	Y2	Z2	X3	Y3	Z3	X4	Y4	Z4	X5	Y5	Z5	X6	Y6	Z6	X7	Y7	Z7	X8	Y8	Z8	X9	Y9	Z9	X10	Y10	Z10	X11	Y11	Z11	X12	Y12	Z12	X13	Y13	Z13	X14	Y14	Z14	X15	Y15	Z15	X16	Y16	Z16	X17	Y17	Z17	X18	Y18	Z18	
136	1.13333	46.726	30.8668	22.494	30.1007	32.0499	-8.44189	18.0919	32.4532	-40.7455	10.3754	29.2851	-65.3606	49.7339	16.6633	-55.8089	15.6544	8.6215	-58.8073	8.71227	-3.46437	-21.9187	49.2444	-6.52278	-58.9101	16.5499	-13.9173	-51.1925	21.7767	-13.8896	-10.405	55.4297	-26.9535	-58.0453	25.0019	-32.2539	-53.2707	27.8819	-24.8534	-15.7671	75.7006	-36.682	-45.8198	66.7845	-38.2251	-74.4394	60.1449	-33.009	-97.0126	92.8006	-18.5755	-6.07148	96.1845	-20.5686	31.1209	87.2564	15.0855	10.3636	
137	1.14167	33.9363	26.2299	26.0418	15.8292	26.3966	-4.8306	2.57655	27.5317	-38.4547	-5.21071	19.8584	-58.1842	32.7754	16.7584	-54.6463	5.7285	-0.0777828	-52.9917	0.709831	-12.3131	-19.4415	41.607	-4.66354	-57.1359	9.75472	-21.4233	-44.3316	19.3833	-17.7673	-7.78179	50.6175	-23.7915	-60.6617	21.2277	-34.7866	-50.4733	28.241	-27.1181	-14.7977	73.5001	-28.793	-50.4622	65.8786	-31.0032	-74.4408	58.0282	-33.0763	-99.7716	91.2832	-12.5955	-5.33029	94.9932	-7.18806	27.6756	74.5658	22.8924	11.8411	
138	1.15	25.0179	18.9088	27.8745	4.11785	16.7715	0.525793	-10.4928	14.5529	-32.992	-21.1099	9.32422	-55.5657	22.0496	9.98673	-51.9123	-2.7143	-13.0309	-48.3328	0.0788929	-25.701	-16.3271	33.3539	-8.15207	-57.1766	8.65526	-31.3897	-41.6339	20.556	-30.0583	-7.39754	48.6805	-23.3074	-57.3307	23.1082	-44.3956	-50.2188	27.4741	-33.8067	-14.9153	71.0537	-26.7571	-50.5535	61.7704	-29.3797	-74.0989	55.6107	-30.3025	-98.805	84.8212	-3.79218	-7.92375	93.2857	-5.28507	25.461	65.7309	21.1956	15.5986	
139	1.15833	21.612	7.53488	30.4173	1.09541	3.62549	1.84056	-17.3532	0.488805	-29.2522	-24.8052	-6.91984	-49.3129	11.1674	5.11561	-48.9488	-7.18267	-23.8445	-45.4359	-2.78544	-35.5152	-15.7005	28.18	-12.6538	-55.6067	8.25325	-41.7048	-41.1762	21.0372	-37.5784	-5.98305	43.6563	-25.3027	-56.2893	24.213	-49.4343	-52.3749	30.0706	-41.7959	-14.0734	70.0773	-29.4784	-51.3685	60.2241	-30.9036	-71.564	52.9863	-31.2324	-97.7118	78.6117	-3.60237	-7.38799	89.4903	-2.86827	26.2711	59.4156	18.4746	15.5781	
140	1.16667	18.0018	1.34102	29.6607	-7.53389	-4.09918	5.81549	-21.0434	-11.2394	-23.4826	-29.0719	-17.2456	-47.416	8.85654	-1.456	-45.7439	-5.44142	-34.7473	-45.1337	-3.1827	-44.4287	-11.9624	26.6545	-16.9992	-52.9546	6.86692	-48.8444	-41.3666	21.4638	-45.3433	-4.34171	44.3327	-33.1281	-58.5351	22.528	-54.9356	-50.8975	31.8356	-49.3425	-13.2536	68.9977	-31.4695	-46.4865	59.0271	-33.5797	-69.9033	49.8117	-32.7439	-98.4331	78.6417	-9.74667	-4.41287	84.9393	-5.62524	25.1059	51.3904	16.3904	16.8672	
141	1.175	12.3251	-4.08597	34.8467	-6.99351	-13.4655	4.9241	-24.0963	-19.0935	-25.3835	-29.6007	-29.1713	-45.1993	3.17265	-11.2556	-46.6255	-5.06756	-42.1176	-45.8362	1.21932	-52.8415	-12.3615	27.2806	-26.2883	-51.8035	6.95513	-55.644	-40.661	19.2545	-51.6311	-3.15351	38.6698	-37.475	-56.0338	25.012	-63.6343	-46.6598	27.7741	-55.7136	-13.3951	70.3632	-36.5384	-46.1718	58.0093	-40.0461	-72.8807	52.4422	-42.4029	-94.3758	72.5068	-8.10341	-5.45889	85.8136	-6.78316	28.0673	51.4491	10.0124	16.2458	
142	1.18333	10.07	-7.78412	30.8169	-12.1726	-18.4692	8.61789	-25.3013	-28.3277	-23.5576	-31.1756	-39.7766	-41.5471	4.72084	-20.677	-45.6757	-7.95121	-50.1169	-42.3875	-1.1471	-59.7954	-8.58298	23.6434	-35.973	-51.0786	11.4477	-65.8011	-38.4062	20.9629	-53.2622	2.44756	39.1153	-48.1291	-54.6495	23.898	-69.6731	-45.3691	31.2541	-59.0436	-6.53395	67.5654	-41.4903	-45.8373	57.0539	-46.7839	-67.5942	53.4901	-51.707	-93.5847	71.3442	-12.5244	-1.38122	84.0114	-7.61043	24.056	45.6657	10.0361	15.6271	
143	1.19167	11.3235	-11.6247	32.1991	-12.7931	-24.4293	13.8201	-28.6187	-38.1834	-18.5069	-34.3962	-49.9926	-39.6548	1.6341	-27.4859	-41.0647	-10.0414	-60.9476	-34.653	2.12597	-64.3219	-1.92411	22.1723	-43.375	-46.2317	10.164	-74.5251	-30.5533	18.6401	-57.3729	7.89341	39.3618	-52.9704	-47.4203	25.3565	-81.263	-32.2312	29.8355	-65.3682	-1.58813	66.5693	-48.6468	-40.8004	56.3722	-58.8237	-63.8153	44.4156	-62.1759	-87.7149	67.9981	-13.7823	-6.40111	79.5729	-7.81721	29.997	43.1345	3.59279	15.2512	
144	1.2	10.7328	-11.9364	41.2778	-16.0926	-28.0366	19.8335	-29.6651	-44.2779	-7.84947	-39.9236	-58.4507	-26.1016	-4.69526	-36.3783	-37.5075	-10.4133	-67.8363	-27.3008	-3.51833	-64.9518	6.0847	15.2755	-48.1997	-38.6721	5.93509	-78.7741	-18.7914	16.2804	-60.7329	14.3264	32.874	-62.8589	-42.3412	22.6257	-85.8165	-27.3334	30.3386	-66.9948	7.04268	62.0956	-55.5885	-39.5147	47.127	-67.5462	-62.3239	37.7981	-74.6155	-77.9214	64.6566	-19.7154	-5.07718	78.1404	-6.63937	29.5442	41.4992	4.27936	14.2271	
145	1.20833	10.0373	-10.0201	44.3249	-16.0192	-26.9227	24.6812	-35.3837	-44.6672	2.24738	-44.7403	-59.3172	-15.8488	-8.38004	-38.7031	-30.4232	-18.0589	-66.1569	-19.6	-4.60448	-59.1155	14.8683	10.4164	-51.0652	-33.1289	-0.736059	-79.5276	-10.4624	15.2596	-58.3984	21.3324	25.4911	-64.3493	-35.476	13.8734	-86.8785	-14.8377	26.8293	-66.386	13.4206	53.099	-57.4811	-34.0333	39.571	-71.2811	-53.0591	30.189	-84.1413	-72.8999	65.7598	-21.0578	-1.26198	77.1953	-7.67437	27.4968	42.2808	3.49198	16.9729	
146	1.21667	9.27071	-3.54737	43.9528	-15.3649	-18.7959	31.8087	-38.0979	-35.2534	6.54332	-49.9122	-50.1386	-6.41962	-18.0537	-31.8337	-24.695	-26.8823	-56.5825	-11.0399	-3.1921	-46.3776	19.4586	3.05734	-47.5497	-27.1348	-7.3953	-72.9202	-2.1157	12.3453	-47.0073	25.4398	19.4174	-61.549	-29.0668	5.90224	-81.3714	-7.51641	19.4445	-61.4255	18.3587	44.1346	-58.8584	-34.4786	27.4992	-71.5076	-50.9389	11.463	-81.9232	-67.035	58.6331	-17.4587	-3.19091	76.0635	-9.43148	26.0893	41.3274	6.29437	20.7928	
147	1.225	9.35619	5.86962	46.2642	-16.5287	-8.22708	33.2063	-39.9337	-21.1149	10.477	-53.4577	-34.4572	-6.04035	-15.7474	-20.8363	-22.1508	-28.1517	-46.0644	-6.69055	-5.34141	-31.6123	20.4639	-1.42061	-41.7893	-27.0002	-15.127	-61.0609	2.17963	5.24295	-35.5888	26.1482	11.0662	-53.3699	-27.5454	-2.70531	-72.4204	-7.69067	13.545	-52.896	19.8579	37.7735	-51.5379	-28.9237	21.9287	-65.5539	-47.3435	7.85747	-74.1059	-65.5465	58.6665	-14.9529	-0.0561356	73.7718	-7.01628	25.4631	44.209	10.5349	21.3442	
148	1.23333	12.6149	13.7176	46.1366	-17.673	3.97312	29.4358	-42.0049	-4.96059	4.60806	-56.281	-16.1399	-10.1034	-17.9492	-5.8741	-24.2767	-27.4167	-31.1549	-6.58321	-5.92461	-16.182	19.0917	-3.55446	-25.7557	-29.3302	-17.7672	-48.3016	-7.11259	6.442	-27.2208	21.9986	7.52336	-40.648	-31.8092	-6.73864	-60.0331	-13.2404	8.7743	-41.2505	15.1689	35.4255	-42.5782	-35.2828	19.191	-54.9482	-53.4517	0.653646	-60.4579	-70.2943	58.811	-10.6053	-1.53503	76.149	-2.01282	27.9397	48.057	18.8201	20.9369	
149	1.24167	11.27	22.7121	45.4785	-13.1767	13.822	27.4631	-39.6867	8.68182	-2.01747	-49.4827	-2.66006	-21.3978	-9.61614	8.84924	-29.6922	-24.2344	-15.6461	-18.6598	-2.40157	-9.73473	9.75218	2.93141	-7.66533	-35.7583	-15.8406	-32.3757	-17.0114	7.50364	-18.7099	15.4661	13.025	-23.3578	-39.2208	-4.23368	-43.1083	-26.2397	12.6143	-30.8238	8.04107	38.7519	-27.4296	-40.6025	23.6103	-35.3333	-60.4848	6.42526	-40.0547	-79.1472	62.5167	2.29443	-1.45158	79.274	4.26636	27.2666	46.2668	29.9455	21.1992	
150	1.25	13.5611	27.0242	41.445	-11.7914	20.5032	16.8644	-32.4269	15.6141	-9.12059	-46.0296	9.45013	-31.9644	-5.36528	20.6389	-34.4815	-22.3747	-5.6918	-26.1412	0.663884	2.85388	5.59302	9.45186	0.026315	-43.7792	-8.65339	-25.4657	-25.5571	10.764	-12.5217	8.06524	23.4508	-13.1554	-46.7375	1.30811	-34.6473	-33.8606	12.117	-24.9555	-2.69367	46.9906	-15.5073	-42.6756	35.0134	-21.991	-63.928	20.1161	-26.1962	-87.2237	65.9364	11.3568	-4.99706	79.1423	12.0899	25.7608	49.4302	35.1159	18.9058	
151	1.25833	13.8642	30.2349	33.165	-10.6029	23.0886	11.04	-24.1446	17.9338	-21.4854	-35.9388	10.2363	-42.6365	1.61356	25.7912	-40.9286	-10.9635	-3.11944	-37.6005	7.83641	3.16554	-3.1355	20.7935	6.73503	-49.6672	-1.11912	-20.6754	-38.0115	10.398	-12.3734	-0.551673	32.2801	-11.0674	-56.7413	11.9881	-31.3813	-43.9321	20.3143	-24.0743	-12.0423	60.9638	-11.1952	-48.9615	46.3333	-14.6334	-72.8557	33.2229	-19.5888	-95.5093	70.8459	16.5917	-5.76231	85.6772	13.8504	27.7248	51.6004	38.9098	17.265	
